<svg width="231" height="160" viewBox="0 0 231 160" fill="none" xmlns="http://www.w3.org/2000/svg">
<path d="M229.824 160H0.755402C0.332578 160 0 159.667 0 159.242V0.757993C0 0.333507 0.332578 0 0.755402 0H229.824C230.246 0 230.579 0.333507 230.579 0.757993V159.242C230.579 159.667 230.246 160 229.824 160ZM1.51077 158.484H229.068V1.51575H1.51077V158.484Z" fill="#2E3038"/>
<path d="M207.501 23.6014C204.268 23.6014 201.641 20.9638 201.641 17.7199C201.641 14.476 204.268 11.8384 207.501 11.8384C210.731 11.8384 213.361 14.476 213.361 17.7199C213.361 20.9638 210.748 23.6014 207.501 23.6014ZM207.501 13.3541C205.099 13.3541 203.151 15.3096 203.151 17.7199C203.151 20.1302 205.099 22.0857 207.501 22.0857C209.902 22.0857 211.85 20.1302 211.85 17.7199C211.85 15.3096 209.902 13.3541 207.501 13.3541Z" fill="#2E3038"/>
<path d="M194.301 17.7202C194.301 20.555 192.021 22.844 189.197 22.844C186.372 22.844 184.092 20.555 184.092 17.7202C184.092 14.8856 186.372 12.5967 189.197 12.5967C192.021 12.5967 194.301 14.9008 194.301 17.7202Z" fill="#2E3038"/>
<path d="M175.997 17.7202C175.997 20.555 173.716 22.844 170.892 22.844C168.067 22.844 165.787 20.555 165.787 17.7202C165.787 14.8856 168.067 12.5967 170.892 12.5967C173.716 12.5967 175.997 14.9008 175.997 17.7202Z" fill="#2E3038"/>
<path d="M214.934 36.7134C214.934 36.1611 214.486 35.7134 213.934 35.7134H17.8125C17.2602 35.7134 16.8125 36.1611 16.8125 36.7134V144.933C16.8125 145.485 17.2602 145.933 17.8125 145.933H213.934C214.486 145.933 214.934 145.485 214.934 144.933V36.7134Z" fill="#184AFB"/>
<path d="M116.582 130.046H116.356C94.2291 129.561 76.6795 111.158 77.1641 88.9507C77.6321 67.3344 95.0296 49.9625 116.567 49.5986H116.81C138.951 49.6592 156.847 67.7285 156.771 89.9512C156.712 112.174 138.709 130.137 116.582 130.061V130.046ZM116.582 51.0994C95.2861 51.4631 78.3114 69.0775 78.6582 90.4667C79.005 111.249 95.6496 128.06 116.37 128.515H116.598C137.908 128.576 155.215 111.295 155.277 89.9056C155.337 68.5167 138.12 51.1448 116.81 51.0842L116.582 51.0994Z" fill="white"/>
<path d="M107.538 74.5249L107.336 104.835L134.891 89.6925L107.538 74.5249Z" fill="white"/>
</svg>
