<svg width="148" height="20" viewBox="0 0 148 20" fill="none" xmlns="http://www.w3.org/2000/svg">
<circle cx="10" cy="10" r="10" fill="#184AFB"/>
<path d="M49.4453 9.67188L56.5 16H54.375L48.3984 10.6406L42.625 16H40.5L47.3203 9.67188L41 4H43.125L48.3594 8.70312L53.4297 4H55.5547L49.4453 9.67188ZM65.9609 14.7656C65.9453 14.8281 65.8281 14.9844 65.6094 15.2344C65.4531 15.4219 65.2448 15.5885 64.9844 15.7344C64.724 15.875 64.375 15.9844 63.9375 16.0625C63.5052 16.1458 62.9349 16.1875 62.2266 16.1875C61.2839 16.1875 60.4792 16.138 59.8125 16.0391C59.1458 15.9453 58.6016 15.7995 58.1797 15.6016C57.7578 15.3984 57.4479 15.1406 57.25 14.8281C57.0573 14.5156 56.9609 14.1432 56.9609 13.7109C56.9609 13.2578 57.013 12.875 57.1172 12.5625C57.2266 12.2448 57.3828 11.9792 57.5859 11.7656C57.7943 11.5521 58.0443 11.3854 58.3359 11.2656C58.6276 11.1458 58.9583 11.0547 59.3281 10.9922C59.7031 10.9297 60.112 10.8906 60.5547 10.875C60.9974 10.8594 61.4688 10.8516 61.9688 10.8516C62.6823 10.8516 63.2786 10.8828 63.7578 10.9453C64.237 11.0026 64.6276 11.0781 64.9297 11.1719C65.237 11.2604 65.4688 11.3568 65.625 11.4609C65.7812 11.5651 65.8932 11.6615 65.9609 11.75C65.9609 11.1667 65.9349 10.6693 65.8828 10.2578C65.8359 9.84635 65.7552 9.5026 65.6406 9.22656C65.5312 8.95052 65.388 8.73177 65.2109 8.57031C65.0339 8.40365 64.8151 8.27865 64.5547 8.19531C64.2995 8.11198 64 8.0599 63.6562 8.03906C63.3125 8.01302 62.9193 8 62.4766 8C61.7891 8 61.2188 8.01823 60.7656 8.05469C60.3125 8.08594 59.9531 8.15104 59.6875 8.25C59.4219 8.34896 59.2344 8.48698 59.125 8.66406C59.0156 8.83594 58.9609 9.0625 58.9609 9.34375H57.4609C57.4609 8.86979 57.5443 8.46875 57.7109 8.14062C57.8828 7.8125 58.1641 7.54688 58.5547 7.34375C58.9505 7.13542 59.4688 6.98438 60.1094 6.89062C60.75 6.79688 61.5391 6.75 62.4766 6.75C63.3932 6.75 64.1693 6.82552 64.8047 6.97656C65.4401 7.1276 65.9531 7.39323 66.3438 7.77344C66.7396 8.15365 67.0234 8.66667 67.1953 9.3125C67.3724 9.95312 67.4609 10.7656 67.4609 11.75V16H65.9609V14.7656ZM62.4766 15C63.138 15 63.6901 14.9688 64.1328 14.9062C64.5807 14.8438 64.9401 14.75 65.2109 14.625C65.4818 14.5 65.6745 14.3438 65.7891 14.1562C65.9036 13.9688 65.9609 13.75 65.9609 13.5C65.9609 13.25 65.8932 13.0391 65.7578 12.8672C65.6276 12.6901 65.4062 12.5469 65.0938 12.4375C64.7865 12.3281 64.3776 12.25 63.8672 12.2031C63.3568 12.151 62.7266 12.125 61.9766 12.125C61.2266 12.125 60.6198 12.138 60.1562 12.1641C59.6979 12.1901 59.3438 12.25 59.0938 12.3438C58.8438 12.4375 58.6745 12.5755 58.5859 12.7578C58.5026 12.9401 58.4609 13.1875 58.4609 13.5C58.4609 13.8125 58.5052 14.0677 58.5938 14.2656C58.6875 14.4583 58.875 14.6094 59.1562 14.7188C59.4375 14.8281 59.8411 14.9036 60.3672 14.9453C60.8984 14.9818 61.6016 15 62.4766 15ZM78.9688 16H77.4688V10.9219C77.4688 10.3802 77.4323 9.92448 77.3594 9.55469C77.2917 9.17969 77.1484 8.8776 76.9297 8.64844C76.7161 8.41927 76.4115 8.25521 76.0156 8.15625C75.625 8.05208 75.1094 8 74.4688 8C73.7656 8 73.1875 8.0599 72.7344 8.17969C72.2812 8.29427 71.9245 8.45833 71.6641 8.67188C71.4036 8.88021 71.2214 9.13281 71.1172 9.42969C71.0182 9.72656 70.9688 10.0573 70.9688 10.4219V16H69.4688V7H70.9688V8.42188C70.974 8.40625 70.9974 8.35417 71.0391 8.26562C71.0807 8.17708 71.1536 8.07292 71.2578 7.95312C71.3672 7.82812 71.513 7.69531 71.6953 7.55469C71.8828 7.41406 72.1224 7.28385 72.4141 7.16406C72.7109 7.04427 73.0677 6.94531 73.4844 6.86719C73.901 6.78906 74.3958 6.75 74.9688 6.75C75.5312 6.75 76.0182 6.78646 76.4297 6.85938C76.8464 6.92708 77.2005 7.03125 77.4922 7.17188C77.7891 7.30729 78.0286 7.47917 78.2109 7.6875C78.3984 7.89062 78.5469 8.125 78.6562 8.39062C78.7448 8.25 78.8828 8.08594 79.0703 7.89844C79.2578 7.71094 79.5182 7.53125 79.8516 7.35938C80.1901 7.1875 80.612 7.04427 81.1172 6.92969C81.6224 6.8099 82.2396 6.75 82.9688 6.75C83.5677 6.75 84.0807 6.79167 84.5078 6.875C84.9401 6.95312 85.3047 7.07292 85.6016 7.23438C85.8984 7.39062 86.1354 7.58594 86.3125 7.82031C86.4948 8.05469 86.6328 8.32812 86.7266 8.64062C86.8255 8.94792 86.8906 9.29427 86.9219 9.67969C86.9531 10.0599 86.9688 10.474 86.9688 10.9219V16H85.4688V10.9219C85.4688 10.3802 85.4323 9.92448 85.3594 9.55469C85.2917 9.17969 85.1484 8.8776 84.9297 8.64844C84.7161 8.41927 84.4115 8.25521 84.0156 8.15625C83.625 8.05208 83.1094 8 82.4688 8C81.7656 8 81.1875 8.0599 80.7344 8.17969C80.2812 8.29427 79.9245 8.45833 79.6641 8.67188C79.4036 8.88021 79.2214 9.13281 79.1172 9.42969C79.0182 9.72656 78.9688 10.0573 78.9688 10.4219V16ZM88.9688 4H90.4688V10.5625H90.9688L96.4688 7H98.7188L92.3438 11.1875L98.9688 16H96.7188L90.9688 11.6875H90.4688V16H88.9688V4ZM98.9688 11.4375C98.9688 10.5156 99.0677 9.7526 99.2656 9.14844C99.4635 8.54427 99.7812 8.0651 100.219 7.71094C100.656 7.35677 101.224 7.10938 101.922 6.96875C102.62 6.82292 103.469 6.75 104.469 6.75C105.469 6.75 106.318 6.82292 107.016 6.96875C107.714 7.10938 108.281 7.35677 108.719 7.71094C109.156 8.0651 109.474 8.54427 109.672 9.14844C109.87 9.7526 109.969 10.5156 109.969 11.4375C109.969 12.3594 109.87 13.125 109.672 13.7344C109.474 14.3438 109.156 14.8281 108.719 15.1875C108.281 15.5469 107.714 15.8021 107.016 15.9531C106.318 16.099 105.469 16.1719 104.469 16.1719C103.469 16.1719 102.62 16.099 101.922 15.9531C101.224 15.8021 100.656 15.5469 100.219 15.1875C99.7812 14.8281 99.4635 14.3438 99.2656 13.7344C99.0677 13.125 98.9688 12.3594 98.9688 11.4375ZM100.469 11.4375C100.469 11.9375 100.487 12.3724 100.523 12.7422C100.56 13.112 100.628 13.4297 100.727 13.6953C100.831 13.9609 100.974 14.1771 101.156 14.3438C101.339 14.5104 101.578 14.6432 101.875 14.7422C102.172 14.8411 102.531 14.9089 102.953 14.9453C103.38 14.9818 103.885 15 104.469 15C104.969 15 105.414 14.9896 105.805 14.9688C106.201 14.9427 106.544 14.888 106.836 14.8047C107.133 14.7214 107.385 14.6042 107.594 14.4531C107.802 14.2969 107.969 14.0859 108.094 13.8203C108.224 13.5547 108.318 13.2292 108.375 12.8438C108.438 12.4531 108.469 11.9844 108.469 11.4375C108.469 10.901 108.438 10.4453 108.375 10.0703C108.318 9.6901 108.224 9.3724 108.094 9.11719C107.969 8.86198 107.802 8.66146 107.594 8.51562C107.385 8.36458 107.133 8.2526 106.836 8.17969C106.544 8.10156 106.201 8.05208 105.805 8.03125C105.414 8.01042 104.969 8 104.469 8C103.969 8 103.521 8.01042 103.125 8.03125C102.734 8.05208 102.391 8.10156 102.094 8.17969C101.802 8.2526 101.552 8.36458 101.344 8.51562C101.135 8.66146 100.966 8.86198 100.836 9.11719C100.711 9.3724 100.617 9.6901 100.555 10.0703C100.497 10.4453 100.469 10.901 100.469 11.4375ZM119.469 9.92969C119.469 9.55469 119.44 9.24479 119.383 9C119.331 8.75 119.203 8.55208 119 8.40625C118.797 8.25521 118.495 8.15104 118.094 8.09375C117.698 8.03125 117.156 8 116.469 8C115.797 8 115.25 8.0599 114.828 8.17969C114.406 8.29427 114.076 8.45833 113.836 8.67188C113.596 8.88542 113.432 9.14062 113.344 9.4375C113.26 9.73438 113.219 10.0651 113.219 10.4297V16H111.719V7H113.219V8.42969C113.271 8.26823 113.367 8.09115 113.508 7.89844C113.648 7.70052 113.862 7.51823 114.148 7.35156C114.435 7.17969 114.805 7.03646 115.258 6.92188C115.716 6.80729 116.286 6.75 116.969 6.75C117.75 6.75 118.385 6.82031 118.875 6.96094C119.365 7.09635 119.745 7.29948 120.016 7.57031C120.292 7.83594 120.477 8.16667 120.57 8.5625C120.669 8.95833 120.719 9.41406 120.719 9.92969H119.469ZM122.219 4H123.719V16H122.219V4ZM135.18 14.7656C135.164 14.8281 135.047 14.9844 134.828 15.2344C134.672 15.4219 134.464 15.5885 134.203 15.7344C133.943 15.875 133.594 15.9844 133.156 16.0625C132.724 16.1458 132.154 16.1875 131.445 16.1875C130.503 16.1875 129.698 16.138 129.031 16.0391C128.365 15.9453 127.82 15.7995 127.398 15.6016C126.977 15.3984 126.667 15.1406 126.469 14.8281C126.276 14.5156 126.18 14.1432 126.18 13.7109C126.18 13.2578 126.232 12.875 126.336 12.5625C126.445 12.2448 126.602 11.9792 126.805 11.7656C127.013 11.5521 127.263 11.3854 127.555 11.2656C127.846 11.1458 128.177 11.0547 128.547 10.9922C128.922 10.9297 129.331 10.8906 129.773 10.875C130.216 10.8594 130.688 10.8516 131.188 10.8516C131.901 10.8516 132.497 10.8828 132.977 10.9453C133.456 11.0026 133.846 11.0781 134.148 11.1719C134.456 11.2604 134.688 11.3568 134.844 11.4609C135 11.5651 135.112 11.6615 135.18 11.75C135.18 11.1667 135.154 10.6693 135.102 10.2578C135.055 9.84635 134.974 9.5026 134.859 9.22656C134.75 8.95052 134.607 8.73177 134.43 8.57031C134.253 8.40365 134.034 8.27865 133.773 8.19531C133.518 8.11198 133.219 8.0599 132.875 8.03906C132.531 8.01302 132.138 8 131.695 8C131.008 8 130.438 8.01823 129.984 8.05469C129.531 8.08594 129.172 8.15104 128.906 8.25C128.641 8.34896 128.453 8.48698 128.344 8.66406C128.234 8.83594 128.18 9.0625 128.18 9.34375H126.68C126.68 8.86979 126.763 8.46875 126.93 8.14062C127.102 7.8125 127.383 7.54688 127.773 7.34375C128.169 7.13542 128.688 6.98438 129.328 6.89062C129.969 6.79688 130.758 6.75 131.695 6.75C132.612 6.75 133.388 6.82552 134.023 6.97656C134.659 7.1276 135.172 7.39323 135.562 7.77344C135.958 8.15365 136.242 8.66667 136.414 9.3125C136.591 9.95312 136.68 10.7656 136.68 11.75V16H135.18V14.7656ZM131.695 15C132.357 15 132.909 14.9688 133.352 14.9062C133.799 14.8438 134.159 14.75 134.43 14.625C134.701 14.5 134.893 14.3438 135.008 14.1562C135.122 13.9688 135.18 13.75 135.18 13.5C135.18 13.25 135.112 13.0391 134.977 12.8672C134.846 12.6901 134.625 12.5469 134.312 12.4375C134.005 12.3281 133.596 12.25 133.086 12.2031C132.576 12.151 131.945 12.125 131.195 12.125C130.445 12.125 129.839 12.138 129.375 12.1641C128.917 12.1901 128.562 12.25 128.312 12.3438C128.062 12.4375 127.893 12.5755 127.805 12.7578C127.721 12.9401 127.68 13.1875 127.68 13.5C127.68 13.8125 127.724 14.0677 127.812 14.2656C127.906 14.4583 128.094 14.6094 128.375 14.7188C128.656 14.8281 129.06 14.9036 129.586 14.9453C130.117 14.9818 130.82 15 131.695 15ZM146.438 9.92969C146.438 9.55469 146.409 9.24479 146.352 9C146.299 8.75 146.172 8.55208 145.969 8.40625C145.766 8.25521 145.464 8.15104 145.062 8.09375C144.667 8.03125 144.125 8 143.438 8C142.766 8 142.219 8.0599 141.797 8.17969C141.375 8.29427 141.044 8.45833 140.805 8.67188C140.565 8.88542 140.401 9.14062 140.312 9.4375C140.229 9.73438 140.188 10.0651 140.188 10.4297V16H138.688V7H140.188V8.42969C140.24 8.26823 140.336 8.09115 140.477 7.89844C140.617 7.70052 140.831 7.51823 141.117 7.35156C141.404 7.17969 141.773 7.03646 142.227 6.92188C142.685 6.80729 143.255 6.75 143.938 6.75C144.719 6.75 145.354 6.82031 145.844 6.96094C146.333 7.09635 146.714 7.29948 146.984 7.57031C147.26 7.83594 147.445 8.16667 147.539 8.5625C147.638 8.95833 147.688 9.41406 147.688 9.92969H146.438Z" fill="#56585E"/>
</svg>
